<svg xmlns="http://www.w3.org/2000/svg" xmlns:xlink="http://www.w3.org/1999/xlink" width="1600" height="840" viewBox="0 0 1600 840"><rect width="1600" height="840" fill="#f7f7f4"/><text x="60" y="78" font-family="system-ui,-apple-system,'Segoe UI',Helvetica,Arial,sans-serif" font-size="40" font-weight="700" fill="#161616">Khmer Online Shop - logo concepts</text><text x="60" y="116" font-family="system-ui,-apple-system,'Segoe UI',Helvetica,Arial,sans-serif" font-size="20" fill="#6b6b6b">Concepts for review — pick a direction (or tell me what you like in each).</text><rect x="60" y="150" width="474.667" height="630" rx="18" fill="#fff" stroke="#e4e4e0" stroke-width="1"/><g><svg xmlns="http://www.w3.org/2000/svg" role="img" aria-label="Khmer Online Shop - Parcel K" viewBox="0 0 256 256" x="90" y="190" width="414.667" height="300" preserveAspectRatio="xMidYMid meet"><title>Khmer Online Shop - Parcel K</title>
<path fill="#0B3C6F" d="M54 40 L102 40 L102 216 L54 216ZM102 92 L154 40 L202 40 L102 140Z"/>
<path fill="#F37021" d="M114 156 L174 216 L126 216 L114 204Z"/></svg>
</g><g><svg xmlns="http://www.w3.org/2000/svg" role="img" aria-label="Khmer Online Shop - Parcel K" viewBox="0 0 256 256" x="90" y="516" width="64" height="64" preserveAspectRatio="xMidYMid meet"><title>Khmer Online Shop - Parcel K</title>
<path fill="#0B3C6F" d="M54 40 L102 40 L102 216 L54 216ZM102 92 L154 40 L202 40 L102 140Z"/>
<path fill="#F37021" d="M114 156 L174 216 L126 216 L114 204Z"/></svg>
</g><text x="122" y="600" font-family="system-ui,-apple-system,'Segoe UI',Helvetica,Arial,sans-serif" font-size="12" fill="#8a8a8a" text-anchor="middle">64px</text><g><svg xmlns="http://www.w3.org/2000/svg" role="img" aria-label="Khmer Online Shop - Parcel K" viewBox="0 0 256 256" x="180" y="548" width="32" height="32" preserveAspectRatio="xMidYMid meet"><title>Khmer Online Shop - Parcel K</title>
<path fill="#0B3C6F" d="M54 40 L102 40 L102 216 L54 216ZM102 92 L154 40 L202 40 L102 140Z"/>
<path fill="#F37021" d="M114 156 L174 216 L126 216 L114 204Z"/></svg>
</g><text x="196" y="600" font-family="system-ui,-apple-system,'Segoe UI',Helvetica,Arial,sans-serif" font-size="12" fill="#8a8a8a" text-anchor="middle">32px</text><g><svg xmlns="http://www.w3.org/2000/svg" role="img" aria-label="Khmer Online Shop - Parcel K" viewBox="0 0 256 256" x="238" y="564" width="16" height="16" preserveAspectRatio="xMidYMid meet"><title>Khmer Online Shop - Parcel K</title>
<path fill="#0B3C6F" d="M54 40 L102 40 L102 216 L54 216ZM102 92 L154 40 L202 40 L102 140Z"/>
<path fill="#F37021" d="M114 156 L174 216 L126 216 L114 204Z"/></svg>
</g><text x="246" y="600" font-family="system-ui,-apple-system,'Segoe UI',Helvetica,Arial,sans-serif" font-size="12" fill="#8a8a8a" text-anchor="middle">16px</text><text x="90.0" y="636" font-family="system-ui,-apple-system,'Segoe UI',Helvetica,Arial,sans-serif" font-size="26" font-weight="700" fill="#161616">A · Parcel K</text><text x="90.0" y="670" font-family="system-ui,-apple-system,'Segoe UI',Helvetica,Arial,sans-serif" font-size="19" fill="#555">A bold K whose orange leg shoots out like a</text><text x="90.0" y="696" font-family="system-ui,-apple-system,'Segoe UI',Helvetica,Arial,sans-serif" font-size="19" fill="#555">parcel in motion.</text><rect x="562.667" y="150" width="474.667" height="630" rx="18" fill="#fff" stroke="#161616" stroke-width="2"/><g><svg xmlns="http://www.w3.org/2000/svg" role="img" aria-label="Khmer Online Shop - Trust Bag" viewBox="0 0 256 256" x="592.667" y="190" width="414.667" height="300" preserveAspectRatio="xMidYMid meet"><title>Khmer Online Shop - Trust Bag</title>
<path fill="#0B3C6F" fill-rule="evenodd" d="M44 108H212L220 220H36ZM96.92 129.04 L117.08 129.04 L117.08 202.96 L96.92 202.96ZM117.08 150.88 L138.92 129.04 L159.08 129.04 L117.08 171.04ZM122.12 177.76 L147.32 202.96 L127.16 202.96 L122.12 197.92Z"/>
<path fill="#F37021" d="M80 100V88A48 48 0 0 1 176 88V100H152V88A24 24 0 0 0 104 88V100Z"/></svg>
</g><g><svg xmlns="http://www.w3.org/2000/svg" role="img" aria-label="Khmer Online Shop - Trust Bag" viewBox="0 0 256 256" x="592.667" y="516" width="64" height="64" preserveAspectRatio="xMidYMid meet"><title>Khmer Online Shop - Trust Bag</title>
<path fill="#0B3C6F" fill-rule="evenodd" d="M44 108H212L220 220H36ZM96.92 129.04 L117.08 129.04 L117.08 202.96 L96.92 202.96ZM117.08 150.88 L138.92 129.04 L159.08 129.04 L117.08 171.04ZM122.12 177.76 L147.32 202.96 L127.16 202.96 L122.12 197.92Z"/>
<path fill="#F37021" d="M80 100V88A48 48 0 0 1 176 88V100H152V88A24 24 0 0 0 104 88V100Z"/></svg>
</g><text x="624.667" y="600" font-family="system-ui,-apple-system,'Segoe UI',Helvetica,Arial,sans-serif" font-size="12" fill="#8a8a8a" text-anchor="middle">64px</text><g><svg xmlns="http://www.w3.org/2000/svg" role="img" aria-label="Khmer Online Shop - Trust Bag" viewBox="0 0 256 256" x="682.667" y="548" width="32" height="32" preserveAspectRatio="xMidYMid meet"><title>Khmer Online Shop - Trust Bag</title>
<path fill="#0B3C6F" fill-rule="evenodd" d="M44 108H212L220 220H36ZM96.92 129.04 L117.08 129.04 L117.08 202.96 L96.92 202.96ZM117.08 150.88 L138.92 129.04 L159.08 129.04 L117.08 171.04ZM122.12 177.76 L147.32 202.96 L127.16 202.96 L122.12 197.92Z"/>
<path fill="#F37021" d="M80 100V88A48 48 0 0 1 176 88V100H152V88A24 24 0 0 0 104 88V100Z"/></svg>
</g><text x="698.667" y="600" font-family="system-ui,-apple-system,'Segoe UI',Helvetica,Arial,sans-serif" font-size="12" fill="#8a8a8a" text-anchor="middle">32px</text><g><svg xmlns="http://www.w3.org/2000/svg" role="img" aria-label="Khmer Online Shop - Trust Bag" viewBox="0 0 256 256" x="740.667" y="564" width="16" height="16" preserveAspectRatio="xMidYMid meet"><title>Khmer Online Shop - Trust Bag</title>
<path fill="#0B3C6F" fill-rule="evenodd" d="M44 108H212L220 220H36ZM96.92 129.04 L117.08 129.04 L117.08 202.96 L96.92 202.96ZM117.08 150.88 L138.92 129.04 L159.08 129.04 L117.08 171.04ZM122.12 177.76 L147.32 202.96 L127.16 202.96 L122.12 197.92Z"/>
<path fill="#F37021" d="M80 100V88A48 48 0 0 1 176 88V100H152V88A24 24 0 0 0 104 88V100Z"/></svg>
</g><text x="748.667" y="600" font-family="system-ui,-apple-system,'Segoe UI',Helvetica,Arial,sans-serif" font-size="12" fill="#8a8a8a" text-anchor="middle">16px</text><text x="592.6666666666667" y="636" font-family="system-ui,-apple-system,'Segoe UI',Helvetica,Arial,sans-serif" font-size="26" font-weight="700" fill="#161616">B · Trust Bag</text><text x="592.6666666666667" y="664" font-family="system-ui,-apple-system,'Segoe UI',Helvetica,Arial,sans-serif" font-size="15" font-weight="700" fill="#161616" letter-spacing="1.5">RECOMMENDED</text><text x="592.6666666666667" y="698" font-family="system-ui,-apple-system,'Segoe UI',Helvetica,Arial,sans-serif" font-size="19" fill="#555">A blue shopping bag with an orange handle</text><text x="592.6666666666667" y="724" font-family="system-ui,-apple-system,'Segoe UI',Helvetica,Arial,sans-serif" font-size="19" fill="#555">and a K cut into it.</text><rect x="1065.33" y="150" width="474.667" height="630" rx="18" fill="#fff" stroke="#e4e4e0" stroke-width="1"/><g><svg xmlns="http://www.w3.org/2000/svg" role="img" aria-label="Khmer Online Shop - Click Box" viewBox="0 0 256 256" x="1095.33" y="190" width="414.667" height="300" preserveAspectRatio="xMidYMid meet"><title>Khmer Online Shop - Click Box</title>
<path fill="#0B3C6F" d="M32 32H200V124H124V200H32Z"/>
<path fill="#F37021" d="M140 140V222L160 204L176 236L194 228L178 196H206Z"/></svg>
</g><g><svg xmlns="http://www.w3.org/2000/svg" role="img" aria-label="Khmer Online Shop - Click Box" viewBox="0 0 256 256" x="1095.33" y="516" width="64" height="64" preserveAspectRatio="xMidYMid meet"><title>Khmer Online Shop - Click Box</title>
<path fill="#0B3C6F" d="M32 32H200V124H124V200H32Z"/>
<path fill="#F37021" d="M140 140V222L160 204L176 236L194 228L178 196H206Z"/></svg>
</g><text x="1127.33" y="600" font-family="system-ui,-apple-system,'Segoe UI',Helvetica,Arial,sans-serif" font-size="12" fill="#8a8a8a" text-anchor="middle">64px</text><g><svg xmlns="http://www.w3.org/2000/svg" role="img" aria-label="Khmer Online Shop - Click Box" viewBox="0 0 256 256" x="1185.33" y="548" width="32" height="32" preserveAspectRatio="xMidYMid meet"><title>Khmer Online Shop - Click Box</title>
<path fill="#0B3C6F" d="M32 32H200V124H124V200H32Z"/>
<path fill="#F37021" d="M140 140V222L160 204L176 236L194 228L178 196H206Z"/></svg>
</g><text x="1201.33" y="600" font-family="system-ui,-apple-system,'Segoe UI',Helvetica,Arial,sans-serif" font-size="12" fill="#8a8a8a" text-anchor="middle">32px</text><g><svg xmlns="http://www.w3.org/2000/svg" role="img" aria-label="Khmer Online Shop - Click Box" viewBox="0 0 256 256" x="1243.33" y="564" width="16" height="16" preserveAspectRatio="xMidYMid meet"><title>Khmer Online Shop - Click Box</title>
<path fill="#0B3C6F" d="M32 32H200V124H124V200H32Z"/>
<path fill="#F37021" d="M140 140V222L160 204L176 236L194 228L178 196H206Z"/></svg>
</g><text x="1251.33" y="600" font-family="system-ui,-apple-system,'Segoe UI',Helvetica,Arial,sans-serif" font-size="12" fill="#8a8a8a" text-anchor="middle">16px</text><text x="1095.3333333333335" y="636" font-family="system-ui,-apple-system,'Segoe UI',Helvetica,Arial,sans-serif" font-size="26" font-weight="700" fill="#161616">C · Click Box</text><text x="1095.3333333333335" y="670" font-family="system-ui,-apple-system,'Segoe UI',Helvetica,Arial,sans-serif" font-size="19" fill="#555">A blue package with an orange click cursor:</text><text x="1095.3333333333335" y="696" font-family="system-ui,-apple-system,'Segoe UI',Helvetica,Arial,sans-serif" font-size="19" fill="#555">tap, and it ships.</text></svg>
