<svg xmlns="http://www.w3.org/2000/svg" viewBox="0 0 591 591" width="591" height="591" role="img" aria-label="Khmer Online Shop logo — round sticker"><title>Khmer Online Shop logo — round sticker</title>
<circle cx="295.5" cy="295.5" r="295.5" fill="#0B3C6F"/>
<g transform="translate(129.1 88.7) scale(1.3)"><path fill="#F37021" d="M56 96H200A16 16 0 0 1 216 112V192A16 16 0 0 1 200 208H104L68 236V208H56A16 16 0 0 1 40 192V112A16 16 0 0 1 56 96ZM98.24 182L114.24 182L114.24 118L98.24 118ZM114.24 161.52L157.76 118L135.13 118L114.24 138.89ZM114.45 161.31L135.13 182L157.76 182L125.76 150Z"/>
<path fill="#FFFFFF" d="M76 96V88A52 52 0 0 1 180 88V96H166V88A38 38 0 0 0 90 88V96ZM71 96A12 12 0 1 1 95 96A12 12 0 1 1 71 96ZM161 96A12 12 0 1 1 185 96A12 12 0 1 1 161 96Z"/></g>
<path fill="#FFFFFF" d="M98.1 461V437H104.8V447L114.1 437H121.6L111.8 447.6L122.1 461H114.2L107.4 452.3L104.8 455V461ZM139.9 461V451.6H130.7V461H123.9V437H130.7V446H139.9V437H146.7V461ZM151.5 461V437H157.1L165.5 450.9L173.8 437H179.4L179.4 461H173.2L173.1 448.3L166.9 458.6H163.9L157.8 448.6V461ZM184.2 461V437H203V442.2H190.9V446.3H201.6V451.4H190.9V455.8H203.5V461ZM207.3 461V437H218Q223.2 437 226.1 439.4Q228.9 441.8 228.9 445.9Q228.9 448.6 227.6 450.5Q226.4 452.4 224.2 453.5L229.4 461H222.1L217.8 454.6H214.1V461ZM214.1 449.4H217.8Q220 449.4 221 448.5Q222 447.5 222 445.9Q222 444.2 221 443.3Q220 442.3 217.8 442.3H214.1ZM254.7 461.5Q251.8 461.5 249.4 460.6Q247 459.6 245.2 457.9Q243.4 456.2 242.4 454Q241.4 451.7 241.4 449Q241.4 446.3 242.4 444Q243.4 441.8 245.2 440.1Q247 438.4 249.4 437.4Q251.8 436.5 254.7 436.5Q257.6 436.5 260 437.4Q262.5 438.4 264.2 440.1Q266 441.8 267 444Q268.1 446.3 268.1 449Q268.1 451.7 267 454Q266 456.3 264.2 457.9Q262.5 459.6 260 460.6Q257.6 461.5 254.7 461.5ZM254.7 455.9Q256.1 455.9 257.3 455.4Q258.5 454.9 259.3 454Q260.2 453.1 260.7 451.8Q261.2 450.5 261.2 449Q261.2 447.4 260.7 446.2Q260.2 444.9 259.3 444Q258.5 443.1 257.3 442.6Q256.1 442.1 254.7 442.1Q253.3 442.1 252.2 442.6Q251 443.1 250.1 444Q249.2 444.9 248.7 446.2Q248.2 447.4 248.2 449Q248.2 450.5 248.7 451.8Q249.2 453.1 250.1 454Q251 454.9 252.2 455.4Q253.3 455.9 254.7 455.9ZM271.6 461V437H277.2L287.8 449.8V437H294.5V461H288.9L278.3 448.2V461ZM299.3 461V437H306V455.6H317.5V461ZM320.2 461V437H327V461ZM331.8 461V437H337.4L348 449.8V437H354.6V461H349L338.4 448.2V461ZM359.4 461V437H378.2V442.2H366.1V446.3H376.8V451.4H366.1V455.8H378.7V461ZM400.9 461.5Q397.9 461.5 395.2 460.7Q392.5 460 390.8 458.8L393 453.8Q394.6 454.9 396.7 455.5Q398.8 456.2 400.9 456.2Q402.3 456.2 403.2 455.9Q404 455.7 404.4 455.3Q404.8 454.8 404.8 454.2Q404.8 453.4 404.1 452.9Q403.3 452.5 402.1 452.2Q400.9 451.8 399.5 451.5Q398 451.2 396.5 450.7Q395.1 450.3 393.9 449.5Q392.7 448.7 391.9 447.5Q391.2 446.2 391.2 444.3Q391.2 442.1 392.4 440.4Q393.5 438.6 395.9 437.6Q398.3 436.5 401.8 436.5Q404.2 436.5 406.4 437.1Q408.7 437.6 410.5 438.6L408.4 443.7Q406.7 442.7 405 442.3Q403.3 441.8 401.8 441.8Q400.4 441.8 399.5 442.1Q398.6 442.4 398.3 442.9Q397.9 443.3 397.9 444Q397.9 444.7 398.6 445.2Q399.4 445.7 400.6 446Q401.8 446.3 403.3 446.6Q404.7 446.9 406.2 447.3Q407.6 447.8 408.8 448.6Q410 449.3 410.8 450.6Q411.5 451.8 411.5 453.7Q411.5 455.8 410.3 457.6Q409.1 459.4 406.8 460.4Q404.4 461.5 400.9 461.5ZM430.7 461V451.6H421.4V461H414.6V437H421.4V446H430.7V437H437.5V461ZM454.4 461.5Q451.5 461.5 449 460.6Q446.6 459.6 444.8 457.9Q443 456.2 442 454Q441 451.7 441 449Q441 446.3 442 444Q443 441.8 444.8 440.1Q446.6 438.4 449 437.4Q451.5 436.5 454.4 436.5Q457.3 436.5 459.7 437.4Q462.1 438.4 463.9 440.1Q465.7 441.8 466.7 444Q467.7 446.3 467.7 449Q467.7 451.7 466.7 454Q465.7 456.3 463.9 457.9Q462.1 459.6 459.7 460.6Q457.3 461.5 454.4 461.5ZM454.4 455.9Q455.7 455.9 456.9 455.4Q458.1 454.9 459 454Q459.8 453.1 460.3 451.8Q460.8 450.5 460.8 449Q460.8 447.4 460.3 446.2Q459.8 444.9 459 444Q458.1 443.1 456.9 442.6Q455.7 442.1 454.4 442.1Q453 442.1 451.8 442.6Q450.6 443.1 449.8 444Q448.9 444.9 448.4 446.2Q447.9 447.4 447.9 449Q447.9 450.5 448.4 451.8Q448.9 453.1 449.8 454Q450.6 454.9 451.8 455.4Q453 455.9 454.4 455.9ZM471.3 461V437H482.2Q485.5 437 487.9 438.1Q490.3 439.1 491.6 441.1Q492.9 443.1 492.9 445.9Q492.9 448.6 491.6 450.6Q490.3 452.6 487.9 453.6Q485.5 454.7 482.2 454.7H478.1V461ZM478.1 449.4H481.8Q484 449.4 485 448.5Q486 447.5 486 445.9Q486 444.2 485 443.3Q484 442.3 481.8 442.3H478.1Z"/>
</svg>
